<svg width="24" height="24" viewBox="0 0 24 24" fill="none" xmlns="http://www.w3.org/2000/svg">
<path d="M12 2C17.5228 2 22 6.47715 22 12C22 17.5228 17.5228 22 12 22C6.47715 22 2 17.5228 2 12C2 6.47715 6.47715 2 12 2ZM12 3.53809C7.32682 3.53809 3.53809 7.32682 3.53809 12C3.53809 16.6732 7.32682 20.4619 12 20.4619C16.6732 20.4619 20.4619 16.6732 20.4619 12C20.4619 7.32682 16.6732 3.53809 12 3.53809ZM14.2764 8.37988C14.5768 8.07948 15.0639 8.07948 15.3643 8.37988C15.6644 8.68031 15.6646 9.16747 15.3643 9.46777L12.8311 12L15.3643 14.5332C15.6644 14.8336 15.6646 15.3208 15.3643 15.6211C15.0639 15.9212 14.5767 15.9212 14.2764 15.6211L11.7432 13.0879L9.21094 15.6211C8.91062 15.9212 8.4234 15.9211 8.12305 15.6211C7.82271 15.3208 7.82286 14.8336 8.12305 14.5332L10.6553 12L8.12305 9.46777C7.82271 9.16744 7.82286 8.6803 8.12305 8.37988C8.42345 8.07948 8.91053 8.07948 9.21094 8.37988L11.7432 10.9121L14.2764 8.37988Z" fill="black"/>
</svg>
