<svg width="25" height="25" viewBox="0 0 25 25" fill="none" xmlns="http://www.w3.org/2000/svg">
<path fill-rule="evenodd" clip-rule="evenodd" d="M2.71558 4.31539C2.71558 4.13779 2.78613 3.96747 2.91171 3.84189C3.03729 3.7163 3.20762 3.64575 3.38522 3.64575H5.39415C5.54352 3.64579 5.68859 3.69578 5.80629 3.78775C5.92399 3.87972 6.00755 4.00841 6.0437 4.15334L6.58611 6.32432H22.1352C22.2369 6.32435 22.3373 6.34755 22.4287 6.39216C22.5201 6.43677 22.6002 6.50162 22.6628 6.58179C22.7254 6.66195 22.7689 6.75533 22.7901 6.85482C22.8112 6.95432 22.8094 7.05733 22.7848 7.15602L20.7758 15.1917C20.7397 15.3367 20.6561 15.4654 20.5384 15.5573C20.4207 15.6493 20.2757 15.6993 20.1263 15.6993H8.07272C7.92335 15.6993 7.77828 15.6493 7.66058 15.5573C7.54288 15.4654 7.45931 15.3367 7.42317 15.1917L4.87183 4.98504H3.38522C3.20762 4.98504 3.03729 4.91449 2.91171 4.7889C2.78613 4.66332 2.71558 4.493 2.71558 4.31539ZM6.92093 7.66361L8.59504 14.36H19.604L21.2781 7.66361H6.92093ZM9.412 18.3779C9.0568 18.3779 8.71615 18.519 8.46499 18.7702C8.21382 19.0213 8.07272 19.362 8.07272 19.7172C8.07272 20.0724 8.21382 20.413 8.46499 20.6642C8.71615 20.9154 9.0568 21.0565 9.412 21.0565C9.76721 21.0565 10.1079 20.9154 10.359 20.6642C10.6102 20.413 10.7513 20.0724 10.7513 19.7172C10.7513 19.362 10.6102 19.0213 10.359 18.7702C10.1079 18.519 9.76721 18.3779 9.412 18.3779ZM6.73343 19.7172C6.73343 19.0068 7.01564 18.3255 7.51797 17.8231C8.0203 17.3208 8.7016 17.0386 9.412 17.0386C10.1224 17.0386 10.8037 17.3208 11.306 17.8231C11.8084 18.3255 12.0906 19.0068 12.0906 19.7172C12.0906 20.4276 11.8084 21.1089 11.306 21.6112C10.8037 22.1135 10.1224 22.3958 9.412 22.3958C8.7016 22.3958 8.0203 22.1135 7.51797 21.6112C7.01564 21.1089 6.73343 20.4276 6.73343 19.7172ZM18.787 18.3779C18.4318 18.3779 18.0912 18.519 17.84 18.7702C17.5888 19.0213 17.4477 19.362 17.4477 19.7172C17.4477 20.0724 17.5888 20.413 17.84 20.6642C18.0912 20.9154 18.4318 21.0565 18.787 21.0565C19.1422 21.0565 19.4829 20.9154 19.734 20.6642C19.9852 20.413 20.1263 20.0724 20.1263 19.7172C20.1263 19.362 19.9852 19.0213 19.734 18.7702C19.4829 18.519 19.1422 18.3779 18.787 18.3779ZM16.1084 19.7172C16.1084 19.0068 16.3906 18.3255 16.893 17.8231C17.3953 17.3208 18.0766 17.0386 18.787 17.0386C19.4974 17.0386 20.1787 17.3208 20.681 17.8231C21.1834 18.3255 21.4656 19.0068 21.4656 19.7172C21.4656 20.4276 21.1834 21.1089 20.681 21.6112C20.1787 22.1135 19.4974 22.3958 18.787 22.3958C18.0766 22.3958 17.3953 22.1135 16.893 21.6112C16.3906 21.1089 16.1084 20.4276 16.1084 19.7172Z" fill="black"/>
</svg>
